# xmcd
#
# Track frame offsets:
#	150
#	13915
#	26000
#	38432
#	50112
#	60772
#	71672
#	83092
#	94450
#	105937
#	116275
#	128407
#	140237
#	152170
#	162327
#	173182
#	183957
#	196980
#	208455
#	220715
#
# Disc length: 3103 seconds
#
# Revision: 1
# Processed by: cddbd v1.5.2PL0 Copyright (c) Steve Scherf et al.
# Submitted via: audiograbber 1.83.01
#
DISCID=140c1d14
DTITLE=King - Ace - Stick McGhee and his Spo-Dee-O-Dee Buddies
DYEAR=1994
DGENRE=Classic R&B
TTITLE0=Big Tom Collins - Reak Good Feeling
TTITLE1=Big Tom Collins - Heartache Blues
TTITLE2=Big Tom Collins - Heart Breaking Woman
TTITLE3=Big Tom Collins - Watchin' My Stuff
TTITLE4=Ralph Willis - Gonna Hop on Down the Line
TTITLE5=Ralph Willis - Do Right
TTITLE6=Ralph Willis - Why'd You Do It
TTITLE7=Ralph Willis - Door Bell Blues
TTITLE8=Stick McGhee - I'm Doing All This Time (and You Put Me Down)
TTITLE9=Stick McGhee - The Wiggle Waggle Woo
TTITLE10=Stick McGhee - Dealin' from the Bottom
TTITLE11=Stick McGhee - Whiskey Women and Loaded Dice
TTITLE12=Stick McGhee - Little Things We Used to Do
TTITLE13=Stick McGhee - Blues in my Heart and Tears in my Eyes
TTITLE14=Stick McGhee - Head Happy with Wine
TTITLE15=Stick McGhee - Jungle Juice
TTITLE16=Stick McGhee - Sad Bad Glad
TTITLE17=Stick McGhee - Six to Eight
TTITLE18=Stick McGhee - Get Your Mind Out of the Gutter
TTITLE19=Stick McGhee - Double Crossin' Liquor
EXTD=mone recordings on the King/Ace label
EXTT0=
EXTT1=
EXTT2=
EXTT3=
EXTT4=
EXTT5=
EXTT6=
EXTT7=
EXTT8=
EXTT9=
EXTT10=
EXTT11=
EXTT12=
EXTT13=
EXTT14=
EXTT15=
EXTT16=
EXTT17=
EXTT18=
EXTT19=
PLAYORDER=
